<?xml version="1.0" encoding="UTF-8" standalone="no"?>
<!-- Created with Inkscape (http://www.inkscape.org/) -->

<svg
   xmlns:dc="http://purl.org/dc/elements/1.1/"
   xmlns:cc="http://creativecommons.org/ns#"
   xmlns:rdf="http://www.w3.org/1999/02/22-rdf-syntax-ns#"
   xmlns:svg="http://www.w3.org/2000/svg"
   xmlns="http://www.w3.org/2000/svg"
   xmlns:sodipodi="http://sodipodi.sourceforge.net/DTD/sodipodi-0.dtd"
   xmlns:inkscape="http://www.inkscape.org/namespaces/inkscape"
   width="200"
   height="50"
   id="svg4112"
   version="1.1"
   inkscape:version="0.48.4 r9939"
   sodipodi:docname="sir.png">
  <defs
     id="defs4114">
    <inkscape:path-effect
       is_visible="true"
       id="path-effect3075"
       effect="spiro" />
    <inkscape:path-effect
       fuse_tolerance="0"
       vertical_pattern="false"
       prop_units="false"
       tang_offset="0"
       normal_offset="0"
       spacing="0"
       scale_y_rel="false"
       prop_scale="1"
       copytype="single_stretched"
       pattern="m 2.4660912,-0.86313193 0,10.00000033 9.9999998,-5.0000003 z"
       is_visible="true"
       id="path-effect3077"
       effect="skeletal" />
    <inkscape:path-effect
       effect="spiro"
       id="path-effect3083"
       is_visible="true" />
    <inkscape:path-effect
       effect="skeletal"
       id="path-effect3085"
       is_visible="true"
       pattern="m 11.837239,-0.80147965 0,10.00000005 10,-5 z"
       copytype="single_stretched"
       prop_scale="1"
       scale_y_rel="false"
       spacing="0"
       normal_offset="0"
       tang_offset="0"
       prop_units="false"
       vertical_pattern="false"
       fuse_tolerance="0" />
    <inkscape:path-effect
       effect="spiro"
       id="path-effect3087"
       is_visible="true" />
    <inkscape:path-effect
       effect="skeletal"
       id="path-effect3089"
       is_visible="true"
       pattern="m 1.541307,13.563502 0,10 10,-5 z"
       copytype="single_stretched"
       prop_scale="1"
       scale_y_rel="false"
       spacing="0"
       normal_offset="0"
       tang_offset="0"
       prop_units="false"
       vertical_pattern="false"
       fuse_tolerance="0" />
    <inkscape:path-effect
       is_visible="true"
       id="path-effect3095"
       effect="spiro" />
    <inkscape:path-effect
       fuse_tolerance="0"
       vertical_pattern="false"
       prop_units="false"
       tang_offset="0"
       normal_offset="0"
       spacing="0"
       scale_y_rel="false"
       prop_scale="1"
       copytype="single_stretched"
       pattern="M 0,5 C 0,2.24 2.24,0 5,0 7.76,0 10,2.24 10,5 10,7.76 7.76,10 5,10 2.24,10 0,7.76 0,5 z"
       is_visible="true"
       id="path-effect3097"
       effect="skeletal" />
    <inkscape:path-effect
       is_visible="true"
       id="path-effect3119"
       effect="spiro" />
    <inkscape:path-effect
       is_visible="true"
       id="path-effect3174"
       effect="spiro" />
    <inkscape:path-effect
       fuse_tolerance="0"
       vertical_pattern="false"
       prop_units="false"
       tang_offset="0"
       normal_offset="0"
       spacing="0"
       scale_y_rel="false"
       prop_scale="1"
       copytype="single_stretched"
       pattern="M 0,0 0,10 10,5 z"
       is_visible="true"
       id="path-effect3176"
       effect="skeletal" />
    <inkscape:path-effect
       is_visible="true"
       id="path-effect3204"
       effect="spiro" />
    <inkscape:path-effect
       fuse_tolerance="0"
       vertical_pattern="false"
       prop_units="false"
       tang_offset="0"
       normal_offset="0"
       spacing="0"
       scale_y_rel="false"
       prop_scale="1"
       copytype="single_stretched"
       pattern="M 0,0 0,10 10,5 z"
       is_visible="true"
       id="path-effect3206"
       effect="skeletal" />
    <inkscape:path-effect
       is_visible="true"
       id="path-effect3210"
       effect="spiro" />
    <inkscape:path-effect
       fuse_tolerance="0"
       vertical_pattern="false"
       prop_units="false"
       tang_offset="0"
       normal_offset="0"
       spacing="0"
       scale_y_rel="false"
       prop_scale="1"
       copytype="single_stretched"
       pattern="m -0.36991369,1002.6088 0,10 9.99999999,-5 z"
       is_visible="true"
       id="path-effect3212"
       effect="skeletal" />
    <inkscape:path-effect
       is_visible="true"
       id="path-effect3217"
       effect="spiro" />
    <inkscape:path-effect
       fuse_tolerance="0"
       vertical_pattern="false"
       prop_units="false"
       tang_offset="0"
       normal_offset="0"
       spacing="0"
       scale_y_rel="false"
       prop_scale="1"
       copytype="single_stretched"
       pattern="M 0,5 10,10 10,0 z"
       is_visible="true"
       id="path-effect3219"
       effect="skeletal" />
    <inkscape:path-effect
       is_visible="true"
       id="path-effect3075-0"
       effect="spiro" />
    <inkscape:path-effect
       fuse_tolerance="0"
       vertical_pattern="false"
       prop_units="false"
       tang_offset="0"
       normal_offset="0"
       spacing="0"
       scale_y_rel="false"
       prop_scale="1"
       copytype="single_stretched"
       pattern="m 2.4660912,-0.86313193 0,10.00000033 9.9999998,-5.0000003 z"
       is_visible="true"
       id="path-effect3077-9"
       effect="skeletal" />
    <inkscape:path-effect
       effect="spiro"
       id="path-effect3083-6"
       is_visible="true" />
    <inkscape:path-effect
       effect="skeletal"
       id="path-effect3085-6"
       is_visible="true"
       pattern="m 11.837239,-0.80147965 0,10.00000005 10,-5 z"
       copytype="single_stretched"
       prop_scale="1"
       scale_y_rel="false"
       spacing="0"
       normal_offset="0"
       tang_offset="0"
       prop_units="false"
       vertical_pattern="false"
       fuse_tolerance="0" />
    <inkscape:path-effect
       effect="spiro"
       id="path-effect3087-4"
       is_visible="true" />
    <inkscape:path-effect
       effect="skeletal"
       id="path-effect3089-5"
       is_visible="true"
       pattern="m 1.541307,13.563502 0,10 10,-5 z"
       copytype="single_stretched"
       prop_scale="1"
       scale_y_rel="false"
       spacing="0"
       normal_offset="0"
       tang_offset="0"
       prop_units="false"
       vertical_pattern="false"
       fuse_tolerance="0" />
    <inkscape:path-effect
       is_visible="true"
       id="path-effect3095-6"
       effect="spiro" />
    <inkscape:path-effect
       fuse_tolerance="0"
       vertical_pattern="false"
       prop_units="false"
       tang_offset="0"
       normal_offset="0"
       spacing="0"
       scale_y_rel="false"
       prop_scale="1"
       copytype="single_stretched"
       pattern="M 0,5 C 0,2.24 2.24,0 5,0 7.76,0 10,2.24 10,5 10,7.76 7.76,10 5,10 2.24,10 0,7.76 0,5 z"
       is_visible="true"
       id="path-effect3097-3"
       effect="skeletal" />
    <inkscape:path-effect
       is_visible="true"
       id="path-effect3119-6"
       effect="spiro" />
    <inkscape:path-effect
       is_visible="true"
       id="path-effect3174-4"
       effect="spiro" />
    <inkscape:path-effect
       fuse_tolerance="0"
       vertical_pattern="false"
       prop_units="false"
       tang_offset="0"
       normal_offset="0"
       spacing="0"
       scale_y_rel="false"
       prop_scale="1"
       copytype="single_stretched"
       pattern="M 0,0 0,10 10,5 z"
       is_visible="true"
       id="path-effect3176-4"
       effect="skeletal" />
    <inkscape:path-effect
       is_visible="true"
       id="path-effect3204-4"
       effect="spiro" />
    <inkscape:path-effect
       fuse_tolerance="0"
       vertical_pattern="false"
       prop_units="false"
       tang_offset="0"
       normal_offset="0"
       spacing="0"
       scale_y_rel="false"
       prop_scale="1"
       copytype="single_stretched"
       pattern="M 0,0 0,10 10,5 z"
       is_visible="true"
       id="path-effect3206-0"
       effect="skeletal" />
    <inkscape:path-effect
       is_visible="true"
       id="path-effect3210-3"
       effect="spiro" />
    <inkscape:path-effect
       fuse_tolerance="0"
       vertical_pattern="false"
       prop_units="false"
       tang_offset="0"
       normal_offset="0"
       spacing="0"
       scale_y_rel="false"
       prop_scale="1"
       copytype="single_stretched"
       pattern="m -0.36991369,1002.6088 0,10 9.99999999,-5 z"
       is_visible="true"
       id="path-effect3212-7"
       effect="skeletal" />
    <inkscape:path-effect
       is_visible="true"
       id="path-effect3217-5"
       effect="spiro" />
    <inkscape:path-effect
       fuse_tolerance="0"
       vertical_pattern="false"
       prop_units="false"
       tang_offset="0"
       normal_offset="0"
       spacing="0"
       scale_y_rel="false"
       prop_scale="1"
       copytype="single_stretched"
       pattern="M 0,5 10,10 10,0 z"
       is_visible="true"
       id="path-effect3219-7"
       effect="skeletal" />
    <inkscape:path-effect
       is_visible="true"
       id="path-effect3120"
       effect="spiro" />
    <inkscape:path-effect
       is_visible="true"
       id="path-effect3075-5"
       effect="spiro" />
    <inkscape:path-effect
       fuse_tolerance="0"
       vertical_pattern="false"
       prop_units="false"
       tang_offset="0"
       normal_offset="0"
       spacing="0"
       scale_y_rel="false"
       prop_scale="1"
       copytype="single_stretched"
       pattern="m 11.220715,-1.6029593 0,10.0000003 10,-5.0000003 z"
       is_visible="true"
       id="path-effect3077-6"
       effect="skeletal" />
    <inkscape:path-effect
       effect="spiro"
       id="path-effect3083-1"
       is_visible="true" />
    <inkscape:path-effect
       effect="skeletal"
       id="path-effect3085-3"
       is_visible="true"
       pattern="m 11.837239,-0.80147965 0,10.00000005 10,-5 z"
       copytype="single_stretched"
       prop_scale="1"
       scale_y_rel="false"
       spacing="0"
       normal_offset="0"
       tang_offset="0"
       prop_units="false"
       vertical_pattern="false"
       fuse_tolerance="0" />
    <inkscape:path-effect
       effect="spiro"
       id="path-effect3087-7"
       is_visible="true" />
    <inkscape:path-effect
       effect="skeletal"
       id="path-effect3089-7"
       is_visible="true"
       pattern="m 1.541307,13.563502 0,10 10,-5 z"
       copytype="single_stretched"
       prop_scale="1"
       scale_y_rel="false"
       spacing="0"
       normal_offset="0"
       tang_offset="0"
       prop_units="false"
       vertical_pattern="false"
       fuse_tolerance="0" />
    <inkscape:path-effect
       is_visible="true"
       id="path-effect3095-67"
       effect="spiro" />
    <inkscape:path-effect
       fuse_tolerance="0"
       vertical_pattern="false"
       prop_units="false"
       tang_offset="0"
       normal_offset="0"
       spacing="0"
       scale_y_rel="false"
       prop_scale="1"
       copytype="single_stretched"
       pattern="M 0,5 C 0,2.24 2.24,0 5,0 7.76,0 10,2.24 10,5 10,7.76 7.76,10 5,10 2.24,10 0,7.76 0,5 z"
       is_visible="true"
       id="path-effect3097-6"
       effect="skeletal" />
    <inkscape:path-effect
       is_visible="true"
       id="path-effect3119-5"
       effect="spiro" />
    <inkscape:path-effect
       is_visible="true"
       id="path-effect3174-6"
       effect="spiro" />
    <inkscape:path-effect
       fuse_tolerance="0"
       vertical_pattern="false"
       prop_units="false"
       tang_offset="0"
       normal_offset="0"
       spacing="0"
       scale_y_rel="false"
       prop_scale="1"
       copytype="single_stretched"
       pattern="M 0,0 0,10 10,5 z"
       is_visible="true"
       id="path-effect3176-8"
       effect="skeletal" />
    <inkscape:path-effect
       is_visible="true"
       id="path-effect3204-9"
       effect="spiro" />
    <inkscape:path-effect
       fuse_tolerance="0"
       vertical_pattern="false"
       prop_units="false"
       tang_offset="0"
       normal_offset="0"
       spacing="0"
       scale_y_rel="false"
       prop_scale="1"
       copytype="single_stretched"
       pattern="M 0,0 0,10 10,5 z"
       is_visible="true"
       id="path-effect3206-2"
       effect="skeletal" />
    <inkscape:path-effect
       is_visible="true"
       id="path-effect3210-2"
       effect="spiro" />
    <inkscape:path-effect
       fuse_tolerance="0"
       vertical_pattern="false"
       prop_units="false"
       tang_offset="0"
       normal_offset="0"
       spacing="0"
       scale_y_rel="false"
       prop_scale="1"
       copytype="single_stretched"
       pattern="m -0.36991369,1002.6088 0,10 9.99999999,-5 z"
       is_visible="true"
       id="path-effect3212-72"
       effect="skeletal" />
    <inkscape:path-effect
       is_visible="true"
       id="path-effect3217-4"
       effect="spiro" />
    <inkscape:path-effect
       fuse_tolerance="0"
       vertical_pattern="false"
       prop_units="false"
       tang_offset="0"
       normal_offset="0"
       spacing="0"
       scale_y_rel="false"
       prop_scale="1"
       copytype="single_stretched"
       pattern="M 0,5 10,10 10,0 z"
       is_visible="true"
       id="path-effect3219-8"
       effect="skeletal" />
    <inkscape:path-effect
       is_visible="true"
       id="path-effect3455"
       effect="spiro" />
    <inkscape:path-effect
       fuse_tolerance="0"
       vertical_pattern="false"
       prop_units="false"
       tang_offset="0"
       normal_offset="0"
       spacing="0"
       scale_y_rel="false"
       prop_scale="1"
       copytype="single_stretched"
       pattern="M 0,0 0,10 10,5 z"
       is_visible="true"
       id="path-effect3457"
       effect="skeletal" />
    <inkscape:path-effect
       is_visible="true"
       id="path-effect3075-6"
       effect="spiro" />
    <inkscape:path-effect
       fuse_tolerance="0"
       vertical_pattern="false"
       prop_units="false"
       tang_offset="0"
       normal_offset="0"
       spacing="0"
       scale_y_rel="false"
       prop_scale="1"
       copytype="single_stretched"
       pattern="m 11.220715,-1.6029593 0,10.0000003 10,-5.0000003 z"
       is_visible="true"
       id="path-effect3077-92"
       effect="skeletal" />
    <inkscape:path-effect
       effect="spiro"
       id="path-effect3083-9"
       is_visible="true" />
    <inkscape:path-effect
       effect="skeletal"
       id="path-effect3085-8"
       is_visible="true"
       pattern="m 11.837239,-0.80147965 0,10.00000005 10,-5 z"
       copytype="single_stretched"
       prop_scale="1"
       scale_y_rel="false"
       spacing="0"
       normal_offset="0"
       tang_offset="0"
       prop_units="false"
       vertical_pattern="false"
       fuse_tolerance="0" />
    <inkscape:path-effect
       effect="spiro"
       id="path-effect3087-8"
       is_visible="true" />
    <inkscape:path-effect
       effect="skeletal"
       id="path-effect3089-2"
       is_visible="true"
       pattern="m 1.541307,13.563502 0,10 10,-5 z"
       copytype="single_stretched"
       prop_scale="1"
       scale_y_rel="false"
       spacing="0"
       normal_offset="0"
       tang_offset="0"
       prop_units="false"
       vertical_pattern="false"
       fuse_tolerance="0" />
    <inkscape:path-effect
       is_visible="true"
       id="path-effect3095-2"
       effect="spiro" />
    <inkscape:path-effect
       fuse_tolerance="0"
       vertical_pattern="false"
       prop_units="false"
       tang_offset="0"
       normal_offset="0"
       spacing="0"
       scale_y_rel="false"
       prop_scale="1"
       copytype="single_stretched"
       pattern="M 0,5 C 0,2.24 2.24,0 5,0 7.76,0 10,2.24 10,5 10,7.76 7.76,10 5,10 2.24,10 0,7.76 0,5 z"
       is_visible="true"
       id="path-effect3097-5"
       effect="skeletal" />
    <inkscape:path-effect
       is_visible="true"
       id="path-effect3119-7"
       effect="spiro" />
    <inkscape:path-effect
       is_visible="true"
       id="path-effect3174-2"
       effect="spiro" />
    <inkscape:path-effect
       fuse_tolerance="0"
       vertical_pattern="false"
       prop_units="false"
       tang_offset="0"
       normal_offset="0"
       spacing="0"
       scale_y_rel="false"
       prop_scale="1"
       copytype="single_stretched"
       pattern="M 0,0 0,10 10,5 z"
       is_visible="true"
       id="path-effect3176-5"
       effect="skeletal" />
    <inkscape:path-effect
       is_visible="true"
       id="path-effect3204-8"
       effect="spiro" />
    <inkscape:path-effect
       fuse_tolerance="0"
       vertical_pattern="false"
       prop_units="false"
       tang_offset="0"
       normal_offset="0"
       spacing="0"
       scale_y_rel="false"
       prop_scale="1"
       copytype="single_stretched"
       pattern="M 0,0 0,10 10,5 z"
       is_visible="true"
       id="path-effect3206-6"
       effect="skeletal" />
    <inkscape:path-effect
       is_visible="true"
       id="path-effect3210-37"
       effect="spiro" />
    <inkscape:path-effect
       fuse_tolerance="0"
       vertical_pattern="false"
       prop_units="false"
       tang_offset="0"
       normal_offset="0"
       spacing="0"
       scale_y_rel="false"
       prop_scale="1"
       copytype="single_stretched"
       pattern="m -0.36991369,1002.6088 0,10 9.99999999,-5 z"
       is_visible="true"
       id="path-effect3212-0"
       effect="skeletal" />
    <inkscape:path-effect
       is_visible="true"
       id="path-effect3217-7"
       effect="spiro" />
    <inkscape:path-effect
       fuse_tolerance="0"
       vertical_pattern="false"
       prop_units="false"
       tang_offset="0"
       normal_offset="0"
       spacing="0"
       scale_y_rel="false"
       prop_scale="1"
       copytype="single_stretched"
       pattern="M 0,5 10,10 10,0 z"
       is_visible="true"
       id="path-effect3219-82"
       effect="skeletal" />
    <inkscape:path-effect
       is_visible="true"
       id="path-effect3455-5"
       effect="spiro" />
    <inkscape:path-effect
       fuse_tolerance="0"
       vertical_pattern="false"
       prop_units="false"
       tang_offset="0"
       normal_offset="0"
       spacing="0"
       scale_y_rel="false"
       prop_scale="1"
       copytype="single_stretched"
       pattern="M 0,0 0,10 10,5 z"
       is_visible="true"
       id="path-effect3457-8"
       effect="skeletal" />
  </defs>
  <sodipodi:namedview
     id="base"
     pagecolor="#ffffff"
     bordercolor="#666666"
     borderopacity="1.0"
     inkscape:pageopacity="0.0"
     inkscape:pageshadow="2"
     inkscape:zoom="8.905"
     inkscape:cx="95.508141"
     inkscape:cy="22.026328"
     inkscape:document-units="px"
     inkscape:current-layer="layer1"
     showgrid="true"
     inkscape:window-width="1920"
     inkscape:window-height="1031"
     inkscape:window-x="0"
     inkscape:window-y="418"
     inkscape:window-maximized="1">
    <inkscape:grid
       type="xygrid"
       id="grid3123" />
  </sodipodi:namedview>
  <metadata
     id="metadata4117">
    <rdf:RDF>
      <cc:Work
         rdf:about="">
        <dc:format>image/svg+xml</dc:format>
        <dc:type
           rdf:resource="http://purl.org/dc/dcmitype/StillImage" />
        <dc:title></dc:title>
      </cc:Work>
    </rdf:RDF>
  </metadata>
  <g
     inkscape:label="Layer 1"
     inkscape:groupmode="layer"
     id="layer1"
     transform="translate(0,-1002.3622)">
    <g
       id="g4574"
       transform="translate(50.504796,1003.5094)">
      <g
         style="display:inline"
         transform="translate(0,-1002.3622)"
         id="layer1-4"
         inkscape:label="Layer 1">
        <path
           inkscape:connector-curvature="0"
           style="stroke:none"
           d="m 22.564736,1010.2536 c 0,3.1667 -2.608452,5.7337 -5.826141,5.7337 -3.217688,0 -5.82614,-2.567 -5.82614,-5.7337 0,-3.1666 2.608452,-5.7336 5.82614,-5.7336 3.217689,0 5.826141,2.567 5.826141,5.7336 z"
           id="path3041" />
        <path
           transform="translate(-2.034525,1000.0194)"
           d="m 23.674477,10.295931 c 0,2.723969 -2.208214,4.932182 -4.932183,4.932182 -2.723969,0 -4.932182,-2.208213 -4.932182,-4.932182 0,-2.7239692 2.208213,-4.9321824 4.932182,-4.9321824 2.723969,0 4.932183,2.2082132 4.932183,4.9321824 z"
           sodipodi:ry="4.9321823"
           sodipodi:rx="4.9321823"
           sodipodi:cy="10.295931"
           sodipodi:cx="18.742294"
           id="path3045"
           style="fill:#e3e2db;stroke:none"
           sodipodi:type="arc" />
        <path
           id="path3049"
           d="m 38.101111,1010.4386 c 0,3.1667 -2.608452,5.7337 -5.826141,5.7337 -3.217688,0 -5.82614,-2.567 -5.82614,-5.7337 0,-3.1666 2.608452,-5.7336 5.82614,-5.7336 3.217689,0 5.826141,2.567 5.826141,5.7336 z"
           style="stroke:none"
           inkscape:connector-curvature="0" />
        <path
           transform="translate(0,1002.3622)"
           d="m 18.125771,8.0456228 c 0,0.7320668 -0.607259,1.3255241 -1.35635,1.3255241 -0.749092,0 -1.356351,-0.5934573 -1.356351,-1.3255241 0,-0.7320667 0.607259,-1.3255241 1.356351,-1.3255241 0.749091,0 1.35635,0.5934574 1.35635,1.3255241 z"
           sodipodi:ry="1.3255241"
           sodipodi:rx="1.3563502"
           sodipodi:cy="8.0456228"
           sodipodi:cx="16.769421"
           id="path3053"
           style="fill:#000000;stroke:none"
           sodipodi:type="arc" />
        <path
           sodipodi:type="arc"
           style="fill:#e3e2db;stroke:none"
           id="path3057"
           sodipodi:cx="18.742294"
           sodipodi:cy="10.295931"
           sodipodi:rx="4.9321823"
           sodipodi:ry="4.9321823"
           d="m 23.674477,10.295931 c 0,2.723969 -2.208214,4.932182 -4.932183,4.932182 -2.723969,0 -4.932182,-2.208213 -4.932182,-4.932182 0,-2.7239692 2.208213,-4.9321824 4.932182,-4.9321824 2.723969,0 4.932183,2.2082132 4.932183,4.9321824 z"
           transform="translate(13.563502,1000.0811)" />
        <path
           sodipodi:nodetypes="sssss"
           inkscape:connector-curvature="0"
           id="path3121"
           d="m 28.729963,1021.8443 c 0,0.9875 -1.697564,1.7879 -3.791615,1.7879 -2.094052,0 -3.791615,-0.8004 -3.791615,-1.7879 0,-0.9874 1.574259,0.062 3.668311,0.062 2.094051,0 3.914919,-1.049 3.914919,-0.062 z"
           style="fill:#ff8080;stroke:none" />
        <path
           sodipodi:nodetypes="cccccc"
           inkscape:connector-curvature="0"
           id="path3172"
           d="M 22.279894,4.0414584 C 24.278029,3.621738 26.578464,3.8521005 23.856492,0.35926904 21.088949,0.65729249 19.4957,-0.11253206 17.157867,0.07255623 15.261304,1.1438957 13.000532,1.4238156 11.247444,2.4817268 13.272568,2.7839957 15.487522,1.000431 17.36917,1.3161282 c 2.967936,0.4137122 4.178619,2.1386465 4.910724,2.7253302 z"
           style="fill:#000000;fill-rule:evenodd;stroke:none"
           transform="translate(0,1002.3622)" />
        <path
           style="fill:#000000;fill-rule:evenodd;stroke:none"
           d="m 27.971956,1006.342 c -1.998135,-0.4197 -4.29857,-0.1893 -1.576598,-3.6821 2.767543,0.298 4.360792,-0.4718 6.698625,-0.2868 1.896563,1.0714 4.157335,1.3513 5.910423,2.4092 -2.025124,0.3023 -4.240078,-1.4813 -6.121726,-1.1656 -2.967936,0.4137 -4.178619,2.1387 -4.910724,2.7253 z"
           id="path3179"
           inkscape:connector-curvature="0"
           sodipodi:nodetypes="cccccc" />
        <rect
           y="1027.1464"
           x="14.549938"
           height="20.160295"
           width="19.97534"
           id="rect3200"
           style="fill:#000000;fill-opacity:1;stroke:none" />
        <path
           sodipodi:nodetypes="cccc"
           inkscape:connector-curvature="0"
           id="path3208"
           d="m 25.896429,1027.2153 -3.457471,-0.014 1.79039,1.9801 z"
           style="fill:#000000;fill-rule:evenodd;stroke:none" />
        <path
           sodipodi:nodetypes="cccc"
           inkscape:connector-curvature="0"
           id="path3215"
           d="m 24.167694,25.277435 -1.793974,11.932001 4.142813,-0.0046 z"
           style="fill:#000000;fill-rule:evenodd;stroke:none"
           transform="translate(0,1002.3622)" />
      </g>
      <g
         style="display:inline"
         inkscape:label="Layer"
         id="layer2">
        <path
           transform="translate(0.4932184,-0.06174143)"
           d="m 33.292232,8.0147963 c 0,0.5788434 -0.524451,1.0480887 -1.171394,1.0480887 -0.646943,0 -1.171393,-0.4692453 -1.171393,-1.0480887 0,-0.5788435 0.52445,-1.0480888 1.171393,-1.0480888 0.646943,0 1.171394,0.4692453 1.171394,1.0480888 z"
           sodipodi:ry="1.0480888"
           sodipodi:rx="1.1713934"
           sodipodi:cy="8.0147963"
           sodipodi:cx="32.120838"
           id="path3055"
           style="fill:#000000;stroke:none;display:inline"
           sodipodi:type="arc" />
        <path
           inkscape:connector-curvature="0"
           inkscape:original-d="M 20.530209,18.598101 C 17.262638,16.070357 19.790382,15.8854 19.790382,15.8854"
           inkscape:path-effect="#path-effect3075;#path-effect3077"
           id="path3073"
           d="M 15.706389,19.913687 25.354029,17.282515 19.790382,15.8854 z"
           style="fill:#000000;fill-rule:evenodd;stroke:none" />
        <path
           inkscape:connector-curvature="0"
           inkscape:original-d="m 29.901357,18.659753 c 3.267571,-2.527744 0.739827,-2.712701 0.739827,-2.712701"
           inkscape:path-effect="#path-effect3083;#path-effect3085"
           id="path3081"
           d="m 25.077538,17.344167 9.647638,2.631172 -4.083992,-4.028287 z"
           style="fill:#000000;fill-rule:evenodd;stroke:none" />
        <path
           transform="matrix(1.0037533,0,0,0.8103571,-5.0437176,-2.78523)"
           d="m 42.786684,20.098644 c 0,7.218519 -5.851765,13.070284 -13.070284,13.070284 -7.218518,0 -13.070284,-5.851765 -13.070284,-13.070284 0,-7.218518 5.851766,-13.0702836 13.070284,-13.0702836 7.218519,0 13.070284,5.8517656 13.070284,13.0702836 z"
           sodipodi:ry="13.070284"
           sodipodi:rx="13.070284"
           sodipodi:cy="20.098644"
           sodipodi:cx="29.7164"
           id="path3001"
           style="fill:#ffb380;fill-rule:evenodd;stroke:none;display:inline"
           sodipodi:type="arc" />
      </g>
    </g>
    <g
       id="g4728"
       transform="translate(0.30827631,1003.5094)">
      <g
         style="display:inline"
         transform="translate(0,-1002.3622)"
         id="layer1-9"
         inkscape:label="Layer 1">
        <path
           transform="matrix(1.0037533,0,0,0.8103571,-5.0437176,999.57697)"
           d="m 42.786684,20.098644 c 0,7.218519 -5.851765,13.070284 -13.070284,13.070284 -7.218518,0 -13.070284,-5.851765 -13.070284,-13.070284 0,-7.218518 5.851766,-13.0702836 13.070284,-13.0702836 7.218519,0 13.070284,5.8517656 13.070284,13.0702836 z"
           sodipodi:ry="13.070284"
           sodipodi:rx="13.070284"
           sodipodi:cy="20.098644"
           sodipodi:cx="29.7164"
           id="path3001-6"
           style="fill:#ffb380;fill-rule:evenodd;stroke:none"
           sodipodi:type="arc" />
        <path
           inkscape:connector-curvature="0"
           style="stroke:none"
           d="m 22.564736,1010.2536 c 0,3.1667 -2.608452,5.7337 -5.826141,5.7337 -3.217688,0 -5.82614,-2.567 -5.82614,-5.7337 0,-3.1666 2.608452,-5.7336 5.82614,-5.7336 3.217689,0 5.826141,2.567 5.826141,5.7336 z"
           id="path3041-4" />
        <path
           transform="translate(-2.034525,1000.0194)"
           d="m 23.674477,10.295931 c 0,2.723969 -2.208214,4.932182 -4.932183,4.932182 -2.723969,0 -4.932182,-2.208213 -4.932182,-4.932182 0,-2.7239692 2.208213,-4.9321824 4.932182,-4.9321824 2.723969,0 4.932183,2.2082132 4.932183,4.9321824 z"
           sodipodi:ry="4.9321823"
           sodipodi:rx="4.9321823"
           sodipodi:cy="10.295931"
           sodipodi:cx="18.742294"
           id="path3045-6"
           style="fill:#e3e2db;stroke:none"
           sodipodi:type="arc" />
        <path
           id="path3049-2"
           d="m 38.101111,1010.4386 c 0,3.1667 -2.608452,5.7337 -5.826141,5.7337 -3.217688,0 -5.82614,-2.567 -5.82614,-5.7337 0,-3.1666 2.608452,-5.7336 5.82614,-5.7336 3.217689,0 5.826141,2.567 5.826141,5.7336 z"
           style="stroke:none"
           inkscape:connector-curvature="0" />
        <path
           transform="translate(0,1002.3622)"
           d="m 18.125771,8.0456228 c 0,0.7320668 -0.607259,1.3255241 -1.35635,1.3255241 -0.749092,0 -1.356351,-0.5934573 -1.356351,-1.3255241 0,-0.7320667 0.607259,-1.3255241 1.356351,-1.3255241 0.749091,0 1.35635,0.5934574 1.35635,1.3255241 z"
           sodipodi:ry="1.3255241"
           sodipodi:rx="1.3563502"
           sodipodi:cy="8.0456228"
           sodipodi:cx="16.769421"
           id="path3053-7"
           style="fill:#000000;stroke:none"
           sodipodi:type="arc" />
        <path
           sodipodi:type="arc"
           style="fill:#e3e2db;stroke:none"
           id="path3057-6"
           sodipodi:cx="18.742294"
           sodipodi:cy="10.295931"
           sodipodi:rx="4.9321823"
           sodipodi:ry="4.9321823"
           d="m 23.674477,10.295931 c 0,2.723969 -2.208214,4.932182 -4.932183,4.932182 -2.723969,0 -4.932182,-2.208213 -4.932182,-4.932182 0,-2.7239692 2.208213,-4.9321824 4.932182,-4.9321824 2.723969,0 4.932183,2.2082132 4.932183,4.9321824 z"
           transform="translate(13.563502,1000.0811)" />
        <path
           sodipodi:nodetypes="sssss"
           inkscape:connector-curvature="0"
           id="path3121-9"
           d="m 28.729963,1021.8443 c 0,0.9875 -1.697564,1.7879 -3.791615,1.7879 -2.094052,0 -3.791615,-0.8004 -3.791615,-1.7879 0,-0.9874 1.574259,0.062 3.668311,0.062 2.094051,0 3.914919,-1.049 3.914919,-0.062 z"
           style="fill:#ff8080;stroke:none" />
        <path
           transform="translate(0,1002.3622)"
           sodipodi:nodetypes="cccccc"
           inkscape:connector-curvature="0"
           id="path3172-1"
           d="M 22.279894,4.0414584 C 24.278029,3.621738 26.578464,3.8521005 23.856492,0.35926904 21.088949,0.65729249 19.4957,-0.11253206 17.157867,0.07255623 15.261304,1.1438957 13.000532,1.4238156 11.247444,2.4817268 13.272568,2.7839957 15.487522,1.000431 17.36917,1.3161282 c 2.967936,0.4137122 4.178619,2.1386465 4.910724,2.7253302 z"
           style="fill:#000000;fill-rule:evenodd;stroke:none" />
        <path
           style="fill:#000000;fill-rule:evenodd;stroke:none"
           d="m 27.971956,1006.342 c -1.998135,-0.4197 -4.29857,-0.1893 -1.576598,-3.6821 2.767543,0.298 4.360792,-0.4718 6.698625,-0.2868 1.896563,1.0714 4.157335,1.3513 5.910423,2.4092 -2.025124,0.3023 -4.240078,-1.4813 -6.121726,-1.1656 -2.967936,0.4137 -4.178619,2.1387 -4.910724,2.7253 z"
           id="path3179-6"
           inkscape:connector-curvature="0"
           sodipodi:nodetypes="cccccc" />
        <rect
           y="1027.1464"
           x="14.549938"
           height="20.160295"
           width="19.97534"
           id="rect3200-0"
           style="fill:#000000;fill-opacity:1;stroke:none" />
        <path
           transform="translate(0,1002.3622)"
           inkscape:connector-curvature="0"
           inkscape:original-d="m 24.414303,24.845869 0.06165,11.775586"
           inkscape:path-effect="#path-effect3204;#path-effect3206"
           id="path3202"
           d="m 29.414234,24.819692 -9.999862,0.05235 5.061581,11.749409 z"
           style="fill:#ffffff;fill-rule:evenodd;stroke:none" />
        <path
           sodipodi:nodetypes="cccc"
           inkscape:connector-curvature="0"
           id="path3208-9"
           d="m 25.896429,1027.2153 -3.457471,-0.014 1.79039,1.9801 z"
           style="fill:#000000;fill-rule:evenodd;stroke:none" />
        <path
           transform="translate(0,1002.3622)"
           sodipodi:nodetypes="cccc"
           inkscape:connector-curvature="0"
           id="path3215-0"
           d="m 24.167694,25.277435 -1.793974,11.932001 4.142813,-0.0046 z"
           style="fill:#000000;fill-rule:evenodd;stroke:none" />
        <path
           transform="translate(0,1002.3622)"
           sodipodi:nodetypes="cccccc"
           inkscape:connector-curvature="0"
           id="path3117"
           d="m 21.331689,10.727497 1.3533,-1.0480284 1.482705,-0.2466696 1.350185,0.080148 1.459958,0.4146522 1.197256,1.6013778"
           style="fill:none;stroke:#000000;stroke-width:1px;stroke-linecap:butt;stroke-linejoin:miter;stroke-opacity:1" />
      </g>
      <g
         style="display:inline"
         inkscape:label="Layer"
         id="layer2-7">
        <path
           transform="translate(0.4932184,-0.06174143)"
           d="m 33.292232,8.0147963 c 0,0.5788434 -0.524451,1.0480887 -1.171394,1.0480887 -0.646943,0 -1.171393,-0.4692453 -1.171393,-1.0480887 0,-0.5788435 0.52445,-1.0480888 1.171393,-1.0480888 0.646943,0 1.171394,0.4692453 1.171394,1.0480888 z"
           sodipodi:ry="1.0480888"
           sodipodi:rx="1.1713934"
           sodipodi:cy="8.0147963"
           sodipodi:cx="32.120838"
           id="path3055-6"
           style="fill:#000000;stroke:none;display:inline"
           sodipodi:type="arc" />
        <path
           inkscape:connector-curvature="0"
           inkscape:original-d="M 20.530209,18.598101 C 17.262638,16.070357 19.790382,15.8854 19.790382,15.8854"
           inkscape:path-effect="#path-effect3075;#path-effect3077"
           id="path3073-7"
           d="M 15.706389,19.913687 25.354029,17.282515 19.790382,15.8854 z"
           style="fill:#000000;fill-rule:evenodd;stroke:none" />
        <path
           inkscape:connector-curvature="0"
           inkscape:original-d="m 29.901357,18.659753 c 3.267571,-2.527744 0.739827,-2.712701 0.739827,-2.712701"
           inkscape:path-effect="#path-effect3083;#path-effect3085"
           id="path3081-0"
           d="m 25.077538,17.344167 9.647638,2.631172 -4.083992,-4.028287 z"
           style="fill:#000000;fill-rule:evenodd;stroke:none" />
      </g>
    </g>
    <g
       id="g4877"
       transform="translate(100.30285,1002.4219)">
      <g
         style="display:inline"
         transform="translate(0,-1002.3622)"
         id="layer1-2"
         inkscape:label="Layer 1">
        <path
           sodipodi:nodetypes="ssssssss"
           inkscape:connector-curvature="0"
           id="path3001-62"
           d="m 12.199765,1015.0626 c 0,3.5946 0.425387,7.0736 2.434686,9.2217 1.260481,1.3476 3.144287,2.1713 5.937429,2.1713 7.245611,0 11.20812,-9.6742 11.20812,-15.5237 0,-2.1842 -0.552435,-3.5263 -1.621938,-4.3506 -1.794851,-1.3835 -5.045964,-1.3088 -9.586182,-1.3088 -2.396952,0 -4.124241,0.4312 -5.362616,1.2201 -2.505041,1.5959 -3.009499,4.6555 -3.009499,8.57 z"
           style="fill:#ffb380;fill-rule:evenodd;stroke:none" />
        <path
           sodipodi:nodetypes="sssss"
           inkscape:connector-curvature="0"
           id="path3121-1"
           d="m 12.834518,1021.6901 c 0.361361,0.919 0.380952,0.8549 0.80148,0.8323 0.532798,-0.029 3.421701,-0.8004 3.421701,-1.7879 0,-0.9874 -1.576884,0.1668 -3.668311,0.062 -0.922658,-0.046 -0.924783,-0.047 -0.55487,0.8936 z"
           style="fill:#ff8080;stroke:none" />
        <path
           sodipodi:nodetypes="cccccc"
           inkscape:connector-curvature="0"
           id="path3172-9"
           d="m 17.772901,1006.2711 c -1.998135,-0.4198 -4.29857,-0.1894 -1.576598,-3.6822 2.767543,0.298 4.360792,-0.4718 6.698625,-0.2867 1.896563,1.0713 4.157335,1.3512 5.910423,2.4091 -2.025124,0.3023 -4.240078,-1.4813 -6.121726,-1.1656 -2.967936,0.4137 -4.178619,2.1387 -4.910724,2.7254 z"
           style="fill:#000000;fill-rule:evenodd;stroke:none" />
        <rect
           y="1027.1464"
           x="14.549938"
           height="20.160295"
           width="19.97534"
           id="rect3200-3"
           style="fill:#000000;fill-opacity:1;stroke:none" />
        <path
           transform="translate(0,1002.3622)"
           inkscape:connector-curvature="0"
           inkscape:original-d="m 24.414303,24.845869 0.06165,11.775586"
           inkscape:path-effect="#path-effect3204;#path-effect3206"
           id="path3202-1"
           d="m 29.414234,24.819692 -9.999862,0.05235 5.061581,11.749409 z"
           style="fill:#ffffff;fill-rule:evenodd;stroke:none" />
        <path
           sodipodi:nodetypes="cccc"
           inkscape:connector-curvature="0"
           id="path3208-6"
           d="m 25.896429,1027.2153 -3.457471,-0.014 1.79039,1.9801 z"
           style="fill:#000000;fill-rule:evenodd;stroke:none" />
        <path
           sodipodi:nodetypes="cccc"
           inkscape:connector-curvature="0"
           id="path3215-9"
           d="m 24.167694,25.277435 -1.793974,11.932001 4.142813,-0.0046 z"
           style="fill:#000000;fill-rule:evenodd;stroke:none"
           transform="translate(0,1002.3622)" />
        <path
           sodipodi:nodetypes="ccccccc"
           inkscape:connector-curvature="0"
           id="path3463"
           d="m 17.778932,1009.9358 7.234375,-0.019 1.900018,0.059 0.828619,0.4298 0.191441,0.5641 -0.36188,1.1474 c -1.444326,1.9287 -2.108965,0.1073 -1.351486,0.9123"
           style="fill:none;stroke:#000000;stroke-width:1px;stroke-linecap:butt;stroke-linejoin:miter;stroke-opacity:1" />
        <path
           transform="matrix(-1,0,0,1,44.11866,1002.3622)"
           d="m 31.863999,7.8608551 c 0,2.4041649 -1.29601,4.3531259 -2.894719,4.3531259 -1.598709,0 -2.894718,-1.948961 -2.894718,-4.3531259 0,-2.4041651 1.296009,-4.353126 2.894718,-4.353126 1.598709,0 2.894719,1.9489609 2.894719,4.353126 z"
           sodipodi:ry="4.353126"
           sodipodi:rx="2.8947184"
           sodipodi:cy="7.8608551"
           sodipodi:cx="28.96928"
           id="path3465"
           style="fill:#00000b;fill-opacity:1;stroke:none"
           sodipodi:type="arc" />
        <path
           sodipodi:type="arc"
           style="fill:#e3e2db;fill-opacity:1;stroke:none"
           id="path3469"
           sodipodi:cx="28.96928"
           sodipodi:cy="7.8608551"
           sodipodi:rx="2.8947184"
           sodipodi:ry="4.353126"
           d="m 31.863999,7.8608551 c 0,2.4041649 -1.29601,4.3531259 -2.894719,4.3531259 -1.598709,0 -2.894718,-1.948961 -2.894718,-4.3531259 0,-2.4041651 1.296009,-4.353126 2.894718,-4.353126 1.598709,0 2.894719,1.9489609 2.894719,4.353126 z"
           transform="matrix(-0.9389313,0,0,0.94923858,42.216961,1002.7171)" />
        <path
           transform="matrix(-0.22137406,0,0,0.27411167,20.76693,1007.8695)"
           d="m 31.863999,7.8608551 c 0,2.4041649 -1.29601,4.3531259 -2.894719,4.3531259 -1.598709,0 -2.894718,-1.948961 -2.894718,-4.3531259 0,-2.4041651 1.296009,-4.353126 2.894718,-4.353126 1.598709,0 2.894719,1.9489609 2.894719,4.353126 z"
           sodipodi:ry="4.353126"
           sodipodi:rx="2.8947184"
           sodipodi:cy="7.8608551"
           sodipodi:cx="28.96928"
           id="path3471"
           style="fill:#000000;fill-opacity:1;stroke:none"
           sodipodi:type="arc" />
      </g>
      <g
         style="display:inline"
         inkscape:label="Layer"
         id="layer2-1">
        <path
           inkscape:connector-curvature="0"
           inkscape:original-d="m 16.071263,17.858273 c 3.267571,-2.527744 0.739827,-2.712701 0.739827,-2.712701"
           inkscape:path-effect="#path-effect3075;#path-effect3077"
           id="path3073-9"
           d="m 11.247443,16.542687 9.64764,2.631172 -4.083993,-4.028287 z"
           style="fill:#000000;fill-rule:evenodd;stroke:none" />
      </g>
    </g>
    <g
       id="g5021"
       transform="translate(150.33093,1002.518)">
      <g
         style="display:inline"
         transform="translate(0,-1002.3622)"
         id="layer1-3"
         inkscape:label="Layer 1">
        <path
           sodipodi:nodetypes="ssssssss"
           inkscape:connector-curvature="0"
           id="path3001-5"
           d="m 30.827679,1015.0626 c 0,3.5946 -0.425387,7.0736 -2.434686,9.2217 -1.260481,1.3476 -3.144287,2.1713 -5.937429,2.1713 -7.245611,0 -11.20812,-9.6742 -11.20812,-15.5237 0,-2.1842 0.552435,-3.5263 1.621938,-4.3506 1.794851,-1.3835 5.045964,-1.3088 9.586182,-1.3088 2.396952,0 4.124241,0.4312 5.362616,1.2201 2.505041,1.5959 3.009499,4.6555 3.009499,8.57 z"
           style="fill:#ffb380;fill-rule:evenodd;stroke:none" />
        <path
           sodipodi:nodetypes="sssss"
           inkscape:connector-curvature="0"
           id="path3121-6"
           d="m 30.192926,1021.6901 c -0.361361,0.919 -0.380952,0.8549 -0.80148,0.8323 -0.532798,-0.029 -3.421701,-0.8004 -3.421701,-1.7879 0,-0.9874 1.576884,0.1668 3.668311,0.062 0.922658,-0.046 0.924783,-0.047 0.55487,0.8936 z"
           style="fill:#ff8080;stroke:none" />
        <path
           sodipodi:nodetypes="cccccc"
           inkscape:connector-curvature="0"
           id="path3172-7"
           d="m 25.254543,1006.2711 c 1.998135,-0.4198 4.29857,-0.1894 1.576598,-3.6822 -2.767543,0.298 -4.360792,-0.4718 -6.698625,-0.2867 -1.896563,1.0713 -4.157335,1.3512 -5.910423,2.4091 2.025124,0.3023 4.240078,-1.4813 6.121726,-1.1656 2.967936,0.4137 4.178619,2.1387 4.910724,2.7254 z"
           style="fill:#000000;fill-rule:evenodd;stroke:none" />
        <rect
           y="1027.1464"
           x="14.549938"
           height="20.160295"
           width="19.97534"
           id="rect3200-38"
           style="fill:#000000;fill-opacity:1;stroke:none" />
        <path
           transform="translate(0,1002.3622)"
           inkscape:connector-curvature="0"
           inkscape:original-d="m 24.414303,24.845869 0.06165,11.775586"
           inkscape:path-effect="#path-effect3204;#path-effect3206"
           id="path3202-0"
           d="m 29.414234,24.819692 -9.999862,0.05235 5.061581,11.749409 z"
           style="fill:#ffffff;fill-rule:evenodd;stroke:none" />
        <path
           sodipodi:nodetypes="cccc"
           inkscape:connector-curvature="0"
           id="path3208-4"
           d="m 25.896429,1027.2153 -3.457471,-0.014 1.79039,1.9801 z"
           style="fill:#000000;fill-rule:evenodd;stroke:none" />
        <path
           sodipodi:nodetypes="cccc"
           inkscape:connector-curvature="0"
           id="path3215-8"
           d="m 24.167694,25.277435 -1.793974,11.932001 4.142813,-0.0046 z"
           style="fill:#000000;fill-rule:evenodd;stroke:none"
           transform="translate(0,1002.3622)" />
        <path
           sodipodi:nodetypes="ccccccc"
           inkscape:connector-curvature="0"
           id="path3463-7"
           d="m 25.248512,1009.9358 -7.234375,-0.019 -1.900018,0.059 -0.828619,0.4298 -0.191441,0.5641 0.36188,1.1474 c 1.444326,1.9287 2.108965,0.1073 1.351486,0.9123"
           style="fill:none;stroke:#000000;stroke-width:1px;stroke-linecap:butt;stroke-linejoin:miter;stroke-opacity:1" />
        <path
           transform="translate(-1.091216,1002.3622)"
           d="m 31.863999,7.8608551 c 0,2.4041649 -1.29601,4.3531259 -2.894719,4.3531259 -1.598709,0 -2.894718,-1.948961 -2.894718,-4.3531259 0,-2.4041651 1.296009,-4.353126 2.894718,-4.353126 1.598709,0 2.894719,1.9489609 2.894719,4.353126 z"
           sodipodi:ry="4.353126"
           sodipodi:rx="2.8947184"
           sodipodi:cy="7.8608551"
           sodipodi:cx="28.96928"
           id="path3465-2"
           style="fill:#00000b;fill-opacity:1;stroke:none"
           sodipodi:type="arc" />
        <path
           sodipodi:type="arc"
           style="fill:#e3e2db;fill-opacity:1;stroke:none"
           id="path3469-0"
           sodipodi:cx="28.96928"
           sodipodi:cy="7.8608551"
           sodipodi:rx="2.8947184"
           sodipodi:ry="4.353126"
           d="m 31.863999,7.8608551 c 0,2.4041649 -1.29601,4.3531259 -2.894719,4.3531259 -1.598709,0 -2.894718,-1.948961 -2.894718,-4.3531259 0,-2.4041651 1.296009,-4.353126 2.894718,-4.353126 1.598709,0 2.894719,1.9489609 2.894719,4.353126 z"
           transform="matrix(0.9389313,0,0,0.94923858,0.810483,1002.7171)" />
        <path
           transform="matrix(0.22137406,0,0,0.27411167,22.260514,1007.8695)"
           d="m 31.863999,7.8608551 c 0,2.4041649 -1.29601,4.3531259 -2.894719,4.3531259 -1.598709,0 -2.894718,-1.948961 -2.894718,-4.3531259 0,-2.4041651 1.296009,-4.353126 2.894718,-4.353126 1.598709,0 2.894719,1.9489609 2.894719,4.353126 z"
           sodipodi:ry="4.353126"
           sodipodi:rx="2.8947184"
           sodipodi:cy="7.8608551"
           sodipodi:cx="28.96928"
           id="path3471-6"
           style="fill:#000000;fill-opacity:1;stroke:none"
           sodipodi:type="arc" />
      </g>
      <g
         style="display:inline"
         inkscape:label="Layer"
         id="layer2-2">
        <path
           inkscape:connector-curvature="0"
           inkscape:original-d="M 26.956181,17.858273 C 23.68861,15.330529 26.216354,15.145572 26.216354,15.145572"
           inkscape:path-effect="#path-effect3075;#path-effect3077"
           id="path3073-6"
           d="m 22.132361,19.173859 9.64764,-2.631172 -5.563647,-1.397115 z"
           style="fill:#000000;fill-rule:evenodd;stroke:none" />
      </g>
    </g>
  </g>
</svg>
